<?xml version="1.0" encoding="UTF-8"?>
<svg width="2478px" height="2449px" viewBox="0 0 2478 2449" version="1.1" xmlns="http://www.w3.org/2000/svg" xmlns:xlink="http://www.w3.org/1999/xlink">
    <title>Moon</title>
    <g id="Moon" stroke="none" stroke-width="1" fill="none" fill-rule="evenodd">
        <g id="Group" transform="translate(-519.000000, -527.152847)">
            <g id="Moon" transform="translate(446.000000, 509.152847)">
                <g id="Moon-BG" transform="translate(0.000000, 0.730292)" fill="#D8D8D8">
                    <circle id="Combined-Shape" stroke="#000000" stroke-width="12" cx="1316" cy="1230" r="1200"></circle>
                    <path d="M704.548681,115.991226 C664.462877,150.659373 601.200755,232.785021 619.022532,257.647138 C630.903717,274.221882 638.574171,291.665384 642.033894,309.977643 C676.464658,264.445524 715.240086,223.823259 758.36018,188.110845 C801.480274,152.398431 842.331684,115.038663 880.914412,76.031542 C872.262814,69.9816387 865.707123,66.2691043 861.247341,64.8939387 C834.430364,56.6249732 820.581232,48.7379562 802.19966,56.1645936 C767.749193,70.0834858 744.634485,81.3230781 704.548681,115.991226 Z" id="Path-10" transform="translate(748.421781, 181.588910) rotate(17.000000) translate(-748.421781, -181.588910) "></path>
                    <path d="M202.488842,652.203027 C162.403038,686.871175 94.0626296,772.874572 111.884407,797.736689 C123.765592,814.311433 133.128808,830.462352 139.974055,846.189444 C174.404819,800.657326 213.180248,760.03506 256.300341,724.322646 C299.420435,688.610232 340.271845,651.250465 378.854573,612.243344 C370.202975,606.19344 363.647284,602.480906 359.187502,601.10574 C332.370525,592.836775 318.521394,584.949758 300.139821,592.376395 C265.689354,606.295287 242.574646,617.53488 202.488842,652.203027 Z" id="Path-10" transform="translate(243.916276, 717.800712) rotate(-19.000000) translate(-243.916276, -717.800712) "></path>
                    <path d="M450.066847,2023.82516 C409.981043,2058.49331 341.640634,2144.49671 359.462412,2169.35882 C371.343596,2185.93357 380.706812,2202.08449 387.55206,2217.81158 C421.982823,2172.27946 460.758252,2131.65719 503.878346,2095.94478 C546.998439,2060.23237 587.84985,2022.8726 626.432578,1983.86548 C617.780979,1977.81557 611.225289,1974.10304 606.765507,1972.72787 C579.948529,1964.45891 566.099398,1956.57189 547.717826,1963.99853 C513.267359,1977.91742 490.152651,1989.15701 450.066847,2023.82516 Z" id="Path-10" transform="translate(491.494281, 2089.422846) rotate(-90.000000) translate(-491.494281, -2089.422846) "></path>
                    <path d="M2316.12871,1754.56206 C2276.04291,1789.2302 2207.7025,1875.2336 2225.52428,1900.09572 C2237.40546,1916.67046 2246.76868,1932.82138 2253.61392,1948.54847 C2288.04469,1903.01636 2326.82012,1862.39409 2369.94021,1826.68168 C2413.0603,1790.96926 2453.91171,1753.60949 2492.49444,1714.60237 C2483.84284,1708.55247 2477.28715,1704.83994 2472.82737,1703.46477 C2446.01039,1695.1958 2432.16126,1687.30879 2413.77969,1694.73543 C2379.32922,1708.65432 2356.21451,1719.89391 2316.12871,1754.56206 Z" id="Path-10" transform="translate(2357.556144, 1820.159741) rotate(-193.000000) translate(-2357.556144, -1820.159741) "></path>
                    <path d="M1774.65498,87.1578494 C1803.37292,118.119897 1823.24363,150.65846 1821.33341,154.696124 C1819.42318,158.733789 1808.86667,179.488105 1808.86667,186.145969 C1808.86667,192.803833 1759.71217,133.476354 1733.60698,105.199049 C1716.20353,86.3475123 1691.89686,63.4198395 1660.68699,36.4160306 C1676.72323,26.2832036 1688.18944,23.4369056 1695.08562,27.8771368 C1705.42988,34.5374835 1745.93704,56.1958015 1774.65498,87.1578494 Z" id="Path-12" transform="translate(1741.073578, 106.255409) rotate(-24.000000) translate(-1741.073578, -106.255409) "></path>
                    <path d="M2308.13283,472.248192 C2336.85077,503.21024 2351.7922,538.515602 2349.88198,542.553267 C2347.97175,546.590931 2336.54514,563.255957 2336.54514,569.913821 C2336.54514,576.571685 2292.35529,518.531223 2266.25011,490.253918 C2248.84666,471.402381 2223.53066,446.904891 2190.30211,416.761448 C2206.2533,407.039989 2217.67698,404.399375 2224.57316,408.839606 C2234.91742,415.499953 2279.4149,441.286145 2308.13283,472.248192 Z" id="Path-12" transform="translate(2270.173527, 488.596329) rotate(5.000000) translate(-2270.173527, -488.596329) "></path>
                    <path d="M2532.32081,943.101966 C2561.03875,974.064014 2578.99661,1007.65743 2577.08639,1011.6951 C2575.17616,1015.73276 2564.67216,1032.51921 2564.67216,1039.17707 C2564.67216,1045.83494 2518.3299,988.547455 2492.22472,960.27015 C2474.82126,941.418614 2448.9952,917.570946 2414.74652,888.727147 C2430.52676,878.264404 2441.86496,875.253149 2448.76114,879.69338 C2459.10541,886.353727 2503.60288,912.139918 2532.32081,943.101966 Z" id="Path-12" transform="translate(2495.985841, 958.709937) rotate(32.000000) translate(-2495.985841, -958.709937) "></path>
                    <path d="M1438.48708,2419.11384 C1460.05046,2442.43066 1473.53444,2467.72911 1472.10011,2470.76978 C1470.66578,2473.81045 1462.77867,2486.45195 1462.77867,2491.46584 C1462.77867,2496.47973 1427.98175,2453.33781 1408.3802,2432.04281 C1395.31251,2417.84614 1377.92399,2401.51201 1356.21466,2383.04043 C1362.91915,2375.99571 1368.86045,2374.14528 1374.03857,2377.48911 C1381.80575,2382.50487 1416.9237,2395.79701 1438.48708,2419.11384 Z" id="Path-12" transform="translate(1414.209487, 2433.871252) rotate(131.000000) translate(-1414.209487, -2433.871252) "></path>
                    <path d="M2530.00754,1488.49688 C2558.72548,1519.45893 2576.68334,1553.05235 2574.77312,1557.09001 C2572.86289,1561.12767 2564.50738,1575.33259 2564.50738,1581.99046 C2564.50738,1588.64832 2517.94338,1530.05269 2489.91145,1505.66506 C2471.22349,1489.40664 2445.39743,1465.55898 2412.43325,1434.12206 C2428.21349,1423.65932 2439.55169,1420.64806 2446.44787,1425.08829 C2456.79214,1431.74864 2501.28961,1457.53483 2530.00754,1488.49688 Z" id="Path-12" transform="translate(2493.672571, 1502.808935) scale(1, -1) rotate(32.000000) translate(-2493.672571, -1502.808935) "></path>
                    <path d="M149.799706,1325.19603 C178.517642,1356.15808 196.475506,1389.7515 194.565279,1393.78916 C192.655053,1397.82683 184.299541,1412.03174 184.299541,1418.68961 C184.299541,1425.34747 137.735542,1366.75184 109.703609,1342.36421 C91.0156544,1326.1058 65.1895896,1302.25813 32.225415,1270.82121 C48.0056506,1260.35847 59.343857,1257.34721 66.2400341,1261.78744 C76.5842997,1268.44779 121.081771,1294.23398 149.799706,1325.19603 Z" id="Path-12" transform="translate(113.464734, 1339.508087) scale(1, -1) rotate(-130.000000) translate(-113.464734, -1339.508087) "></path>
                </g>
                <path d="M2311.56572,765.064316 C2345.46723,805.466569 2340.19158,891.125909 2289.45093,919.606998 C2255.62382,938.594391 2216.62461,917.546722 2172.45327,856.463992 C2186.617,869.359627 2195.4654,875.928555 2198.99848,876.170778 C2204.29809,876.534112 2202.52677,868.399954 2204.89535,871.222717 C2205.51091,871.956317 2206.72524,873.081714 2208.53834,874.598909 L2209.02491,875.003587 C2211.85909,877.347123 2216.00172,880.546838 2221.45283,884.60273 C2187.00979,842.516619 2171.83606,811.707452 2175.93163,792.17523 C2180.02721,772.643007 2189.15915,754.143087 2203.32745,736.675471 C2193.39673,740.194489 2186.64922,743.412112 2183.08492,746.32834 C2172.27813,755.170212 2166.59358,767.145834 2162.70405,773.455737 C2153.98336,787.603143 2160.67169,729.485408 2202.62981,722.022949 C2244.58794,714.560491 2277.6642,724.662064 2311.56572,765.064316 Z M2307.54546,784.102211 C2267.91649,698.733932 2201.16354,758.114967 2203.48578,760.8825 C2205.80801,763.650034 2212.51292,754.573278 2241.08971,751.063837 C2267.38036,747.835151 2281.93442,770.707721 2285.4237,775.971706 L2285.63558,776.289596 C2285.83179,776.581622 2285.981,776.794712 2286.08339,776.916741 C2287.78997,778.95056 2287.28903,791.419845 2280.71433,783.584422 C2274.13963,775.748999 2241.53862,778.254642 2251.46475,778.019249 C2261.39087,777.783857 2274.59442,796.356528 2272.91445,794.354422 C2271.8878,793.130912 2268.61915,793.859114 2265.2574,794.693875 L2264.64563,794.846413 C2262.70813,795.330568 2260.78294,795.812977 2259.28022,795.941471 C2257.21365,796.118178 2259.36347,799.992942 2261.64447,803.733909 L2261.94903,804.231576 C2264.28439,808.035781 2266.56712,811.522221 2264.43356,810.597867 C2260.12005,808.729064 2214.63403,815.164111 2208.54294,820.275144 C2202.45184,825.386177 2204.32402,841.363801 2216.71301,856.128424 C2229.102,870.893047 2223.03395,861.527272 2245.93652,876.830284 C2268.83908,892.133295 2347.17444,869.47049 2307.54546,784.102211 Z" id="Combined-Shape" fill="#000000"></path>
            </g>
            <g id="Moon-Craters" transform="translate(1768.196021, 1725.243954) rotate(22.000000) translate(-1768.196021, -1725.243954) translate(388.196021, 422.243954)" fill="#000000">
                <path d="M512.502661,2013.47652 C583.69467,1955.2362 650.132171,1952.3661 741.690294,1959.16688 C833.248418,1965.96767 759.611276,2103.19608 719.49671,2138.16642 C692.753667,2161.47998 657.483352,2167.96267 613.685766,2157.61449 C607.310566,2154.64156 616.75516,2148.15887 642.019548,2138.16642 C714.153099,2109.6365 753.43886,2035.20279 753.43886,2008.82348 C753.43886,1994.50456 749.246521,1979.95829 729.011603,1977.62201 C731.434444,1990.83063 734.196502,1992.03846 734.196502,2002.1604 C734.196502,2024.29979 714.443629,2042.00145 622.988374,2099.70756 C562.018204,2138.1783 502.940721,2148.72052 445.755924,2131.33423 C443.283643,2156.52089 442.047503,2170.50095 442.047503,2173.27441 C442.047503,2174.89689 446.538597,2176.16697 451.436898,2177.45543 L452.193145,2177.65386 C459.65033,2179.6074 467.560156,2181.64654 461.783065,2185.055 C451.991385,2190.83205 429.119974,2185.055 424.611887,2179.27794 C420.103801,2173.50089 424.611887,2116.30915 424.611887,2109.99692 C424.611887,2103.68469 441.310651,2071.71684 512.502661,2013.47652 Z M657.9573,1968.03568 C628.322846,1968.03568 591.72032,1986.75898 574.644675,1995.49491 C562.008697,2001.95949 589.455514,2004.13375 601.649013,2004.82735 L602.603157,2004.8804 C606.27729,2005.08006 608.189669,2005.13197 606.452534,2005.13197 C599.21447,2005.13197 567.382452,2022.01917 574.644675,2018.9558 C581.906897,2015.89243 607.368164,2022.01917 613.690598,2026.54175 C617.231161,2029.0744 608.492072,2029.25158 599.413625,2029.73687 L598.44018,2029.79016 C591.624587,2030.17318 584.857979,2030.78303 583.177666,2032.74339 C579.17692,2037.41093 618.551407,2042.17242 603.125827,2042.17242 C592.842107,2042.17242 569.893387,2060.98278 534.279665,2098.60349 C513.855165,2135.62185 550.813742,2124.79616 645.155398,2066.12642 C786.667882,1978.12182 687.591755,1968.03568 657.9573,1968.03568 Z" id="Combined-Shape" transform="translate(604.122967, 2072.006452) rotate(-101.000000) translate(-604.122967, -2072.006452) "></path>
                <path d="M2184.35544,1817.30365 C2255.54745,1759.06333 2321.98495,1756.19323 2413.54308,1762.99401 C2505.1012,1769.79479 2431.46406,1907.02321 2391.34949,1941.99355 C2364.60645,1965.30711 2329.33613,1971.7898 2285.53855,1961.44162 C2279.16335,1958.46869 2288.60794,1951.986 2313.87233,1941.99355 C2386.00588,1913.46363 2425.29164,1839.02992 2425.29164,1812.65061 C2425.29164,1798.33169 2421.0993,1783.78542 2400.86439,1781.44914 C2403.28723,1794.65776 2406.04928,1795.86559 2406.04928,1805.98753 C2406.04928,1828.12692 2386.29641,1845.82858 2294.84116,1903.53469 C2233.87099,1942.00543 2174.7935,1952.54765 2117.60871,1935.16136 C2115.13643,1960.34801 2113.90029,1974.32808 2113.90029,1977.10154 C2113.90029,1978.72402 2118.39138,1979.9941 2123.28968,1981.28256 L2124.04593,1981.48098 C2131.50311,1983.43453 2139.41294,1985.47366 2133.63585,1988.88213 C2123.84417,1994.65918 2100.97276,1988.88213 2096.46467,1983.10507 C2091.95658,1977.32802 2096.46467,1920.13628 2096.46467,1913.82405 C2096.46467,1907.51181 2113.16343,1875.54397 2184.35544,1817.30365 Z M2329.81008,1771.86281 C2300.17563,1771.86281 2263.5731,1790.58611 2246.49746,1799.32204 C2233.86148,1805.78662 2261.3083,1807.96088 2273.5018,1808.65448 L2274.45594,1808.70753 C2278.13007,1808.90719 2280.04245,1808.9591 2278.30532,1808.9591 C2271.06725,1808.9591 2239.23523,1825.8463 2246.49746,1822.78293 C2253.75968,1819.71956 2279.22095,1825.8463 2285.54338,1830.36888 C2289.08394,1832.90153 2280.34485,1833.07871 2271.26641,1833.564 L2270.29296,1833.61729 C2263.47737,1834.00031 2256.71076,1834.61016 2255.03045,1836.57052 C2251.0297,1841.23806 2290.40419,1845.99955 2274.97861,1845.99955 C2264.69489,1845.99955 2241.74617,1864.8099 2206.13245,1902.43062 C2185.70795,1939.44898 2222.66652,1928.62329 2317.00818,1869.95355 C2458.52066,1781.94895 2359.44454,1771.86281 2329.81008,1771.86281 Z" id="Combined-Shape" transform="translate(2275.975748, 1875.833581) scale(1, -1) rotate(-271.000000) translate(-2275.975748, -1875.833581) "></path>
                <path d="M1644.73798,1622.18648 C1734.53068,1547.82212 1823.06706,1549.95204 1946.07029,1567.83194 C2069.07352,1585.71185 2090.76118,1676.36243 2040.36399,1721.25685 C2006.76587,1751.18646 1924.39528,1788.0244 1793.25222,1831.77066 C1860.09663,1783.38742 1909.94303,1753.41718 1942.7914,1741.85993 C2036.57835,1708.86227 2026.94887,1634.98418 1997.69636,1618.41133 C1971.56383,1603.60609 1958.08448,1597.41557 1930.82327,1592.30626 C1933.32222,1602.72655 1935.6161,1607.90947 1937.31313,1612.9346 L1937.53106,1613.58958 C1938.74647,1617.30076 1939.62651,1621.0464 1940.01296,1626.87763 C1942.05159,1657.63838 1942.66431,1710.72254 1825.73847,1782.47879 C1747.78791,1830.31629 1661.33392,1829.42113 1566.37651,1779.7933 C1565.39127,1814.56031 1565.02635,1833.87055 1565.28173,1837.72404 C1565.43879,1840.09393 1572.19427,1842.37975 1579.24571,1844.74312 L1580.27901,1845.08955 C1590.10152,1848.38627 1599.90186,1851.84812 1592.74515,1855.90941 C1580.1895,1863.03449 1549.08751,1852.90174 1542.52972,1844.46015 C1535.97254,1836.0181 1536.73176,1756.9703 1536.15052,1748.20001 C1535.56928,1739.42971 1554.94528,1696.55083 1644.73798,1622.18648 Z M1834.74979,1572.39574 C1814.52601,1571.0159 1799.96317,1574.26882 1787.62049,1579.19072 C1775.79794,1583.90521 1766.01238,1590.15098 1755.23995,1595.32337 C1733.22115,1605.89573 1803.44834,1602.61731 1781.70237,1606.6142 C1759.95641,1610.6111 1672.90718,1653.85526 1682.33115,1650.2641 C1686.28921,1648.75581 1702.93368,1641.95847 1719.97169,1635.28783 L1722.40704,1634.33633 C1745.13721,1625.47461 1767.52635,1617.29661 1760.43587,1622.63967 C1756.81828,1625.36572 1752.43431,1628.11116 1747.90247,1630.78501 L1746.85431,1631.40074 C1746.15417,1631.81033 1745.45165,1632.21805 1744.74901,1632.62359 L1743.69524,1633.2302 C1733.6889,1638.97666 1723.88645,1644.24452 1720.80469,1648.07524 C1718.9843,1650.33806 1717.73447,1652.22888 1718.4084,1652.81358 L1718.43898,1652.83558 L1716.78546,1653.74033 C1671.65196,1678.48767 1595.47207,1724.94264 1606.07463,1743.46448 L1606.62603,1744.29932 C1627.08862,1771.45409 1648.90031,1861.50544 1829.95589,1752.22 C2011.01146,1642.93455 1874.3451,1575.09727 1834.74979,1572.39574 Z M1745.26306,1639.82882 C1726.5821,1650.84039 1719.77249,1653.71842 1718.46729,1652.8581 L1718.43898,1652.83558 L1718.84607,1652.61374 C1741.26086,1640.39477 1755.20616,1633.96783 1745.26306,1639.82882 Z" id="Combined-Shape" transform="translate(1800.897902, 1707.881555) scale(1, -1) rotate(-301.000000) translate(-1800.897902, -1707.881555) "></path>
                <path d="M334.294585,1345.68203 C405.48084,1294.97969 471.91297,1292.48107 563.463692,1298.40163 C655.014414,1304.3222 581.383225,1423.78927 541.271902,1454.23343 C514.53102,1474.52954 479.263557,1480.17319 435.469511,1471.16436 C429.094827,1468.57621 438.538658,1462.93257 463.801003,1454.23343 C535.928722,1429.39611 575.211308,1364.59629 575.211308,1341.63122 C575.211308,1329.16559 571.019308,1316.50203 550.786026,1314.46813 C553.208671,1325.96717 555.970505,1327.01867 555.970505,1335.83054 C555.970505,1355.10445 536.219229,1370.515 444.771367,1420.75227 C383.806126,1454.24378 324.733419,1463.42153 267.553244,1448.28553 C265.081164,1470.2123 263.845124,1482.38294 263.845124,1484.79743 C263.845124,1488.41918 293.369978,1490.02394 283.57909,1495.05327 C273.788202,1500.0826 250.918639,1495.05327 246.410917,1490.02394 C241.903195,1484.9946 246.410917,1435.20513 246.410917,1429.70989 C246.410917,1424.21464 263.108331,1396.38436 334.294585,1345.68203 Z M479.777883,1306.20708 C450.067855,1306.20708 413.371986,1322.46149 396.252794,1330.04549 C379.133603,1337.62948 435.398292,1338.41179 428.14177,1338.41179 C420.885248,1338.41179 388.972052,1353.07223 396.252794,1350.41279 C403.533537,1347.75336 429.059734,1353.07223 435.398292,1356.99845 C439.01127,1359.2364 429.869677,1359.3558 420.597067,1359.79509 L419.621065,1359.84262 C412.955859,1360.17691 406.452035,1360.72099 404.807546,1362.38234 C400.796598,1366.4344 440.271497,1370.56804 424.806579,1370.56804 C414.496634,1370.56804 391.48939,1386.89803 355.784846,1419.55803 C335.308259,1451.69509 372.361088,1442.29689 466.943334,1391.36343 C608.816701,1314.96325 509.487911,1306.20708 479.777883,1306.20708 Z" id="Combined-Shape" transform="translate(425.907485, 1396.636488) rotate(-73.000000) translate(-425.907485, -1396.636488) "></path>
                <path d="M860.429597,236.990777 C931.621607,178.750457 998.059107,175.880357 1089.61723,182.681141 C1181.17535,189.481925 1107.53821,326.710337 1067.42365,361.680678 C1040.6806,384.99424 1005.41029,391.476929 961.612702,381.128747 C955.237503,378.155819 964.682097,371.673129 989.946484,361.680678 C1062.08003,333.150759 1101.3658,258.717048 1101.3658,232.337737 C1101.3658,218.018821 1097.17346,203.472548 1076.93854,201.13627 C1079.36138,214.344888 1082.12344,215.552719 1082.12344,225.674659 C1082.12344,247.81405 1062.37057,265.515711 970.91531,323.221821 C909.94514,361.692562 850.867657,372.234784 793.68286,354.848488 C791.21058,380.035145 789.97444,394.015206 789.97444,396.78867 C789.97444,398.411146 794.465533,399.681228 799.363834,400.969694 L800.120081,401.168115 C807.577267,403.12166 815.487092,405.160795 809.710001,408.569256 C799.918321,414.346308 777.04691,408.569256 772.538824,402.792204 C768.030737,397.015152 772.538824,339.823411 772.538824,333.511178 C772.538824,327.198945 789.237587,295.231098 860.429597,236.990777 Z M1005.88424,191.549943 C976.249782,191.549943 939.647257,210.273239 922.571611,219.009166 C909.935633,225.473752 937.38245,227.648006 949.57595,228.341611 L950.530094,228.394661 C954.204226,228.594322 956.116606,228.646227 954.37947,228.646227 C947.141407,228.646227 915.309388,245.533432 922.571611,242.470059 C929.833834,239.406687 955.2951,245.533432 961.617534,250.056014 C965.158097,252.58866 956.419008,252.765837 947.340561,253.251126 L946.367116,253.304422 C939.551524,253.687443 932.784915,254.297287 931.104602,256.257653 C927.103857,260.925189 966.478343,265.686677 951.052764,265.686677 C940.769044,265.686677 917.820323,284.497035 882.206602,322.117751 C861.782101,359.136107 898.740679,348.310418 993.082334,289.640685 C1134.59482,201.636084 1035.51869,191.549943 1005.88424,191.549943 Z" id="Combined-Shape"></path>
                <path d="M1215.03203,168.276277 C1167.17938,171.726413 1160.26048,225.656553 1174.45523,225.656553 C1183.91839,225.656553 1183.91839,222.052461 1174.45523,214.844276 C1172.4306,196.438505 1190.68218,187.235619 1229.20995,187.235619 C1267.73773,187.235619 1288.16973,189.213495 1290.50596,193.169246 C1272.09178,174.273843 1246.9338,165.976187 1215.03203,168.276277 Z" id="Path-3" stroke="#979797"></path>
                <path d="M606.243598,471.960231 C558.390947,475.410367 551.472044,529.340507 565.666794,529.340507 C575.12996,529.340507 575.12996,525.736415 565.666794,518.528231 C563.642166,500.122459 581.893741,490.919573 620.421519,490.919573 C658.949297,490.919573 679.381299,492.897449 681.717526,496.853201 C663.303341,477.957797 638.145365,469.660141 606.243598,471.960231 Z" id="Path-3" stroke="#979797" transform="translate(620.421519, 500.463168) rotate(-55.000000) translate(-620.421519, -500.463168) "></path>
                <path d="M1738.03939,2210.45101 C1690.18674,2213.90115 1687.4455,2281.16162 1701.64025,2281.16162 C1715.835,2281.16162 1704.52142,2266.79324 1705.95945,2257.09463 C1707.39748,2247.39602 1717.36838,2235.34398 1760.71348,2232.18864 C1804.05857,2229.03331 1808.68451,2262.23091 1816.51837,2264.4439 C1822.92251,2266.253 1822.99512,2250.58673 1814.86762,2234.89367 C1806.74012,2219.20061 1785.89204,2207.00088 1738.03939,2210.45101 Z" id="Path-3" stroke="#979797" transform="translate(1757.645684, 2245.512376) rotate(-165.000000) translate(-1757.645684, -2245.512376) "></path>
                <path d="M290.561675,1057.70462 C242.709023,1061.15476 239.967785,1128.41524 254.162535,1128.41524 C268.357284,1128.41524 257.043699,1114.04686 258.481728,1104.34824 C259.919757,1094.64963 269.890661,1082.59759 313.235758,1079.44226 C356.580854,1076.28692 361.206789,1109.48452 369.040655,1111.69751 C375.444789,1113.50661 375.517398,1097.84034 367.389899,1082.14728 C359.2624,1066.45423 338.414326,1054.25449 290.561675,1057.70462 Z" id="Path-3" stroke="#979797" transform="translate(310.167965, 1092.765989) rotate(-74.000000) translate(-310.167965, -1092.765989) "></path>
                <path d="M867.961606,1740.98907 C820.108955,1744.43921 817.367717,1811.69969 831.562466,1811.69969 C845.757216,1811.69969 834.443631,1797.33131 835.88166,1787.63269 C837.319689,1777.93408 847.290593,1765.88204 890.635689,1762.7267 C933.980786,1759.57137 938.606721,1792.76897 946.440586,1794.98196 C952.844721,1796.79106 952.91733,1781.12479 944.789831,1765.43173 C936.662332,1749.73867 915.814258,1737.53894 867.961606,1740.98907 Z" id="Path-3" stroke="#979797" transform="translate(887.567897, 1776.050438) rotate(-115.000000) translate(-887.567897, -1776.050438) "></path>
                <path d="M2417.59835,1438.69932 C2369.7457,1442.14946 2353.72501,1532.85472 2367.91976,1532.85472 C2382.11451,1532.85472 2373.40093,1533.37125 2374.83896,1523.67264 C2376.27699,1513.97402 2379.23426,1452.53318 2422.57936,1449.37785 C2465.92445,1446.22251 2443.24775,1540.34443 2451.08161,1542.55741 C2457.48575,1544.36652 2489.27463,1502.27982 2481.14713,1486.58676 C2473.01963,1470.89371 2465.451,1435.24919 2417.59835,1438.69932 Z" id="Path-3" stroke="#979797" transform="translate(2422.703370, 1490.539793) rotate(-149.000000) translate(-2422.703370, -1490.539793) "></path>
                <path d="M1813.11783,1006.88796 C1765.26518,1010.3381 1762.52394,1077.59857 1776.71869,1077.59857 C1790.91344,1077.59857 1779.59985,1063.23019 1781.03788,1053.53158 C1782.47591,1043.83296 1792.44681,1031.78093 1835.79191,1028.62559 C1879.13701,1025.47025 1883.76294,1058.66786 1891.59681,1060.88084 C1898.00094,1062.68995 1898.07355,1047.02368 1889.94605,1031.33062 C1881.81855,1015.63756 1860.97048,1003.43782 1813.11783,1006.88796 Z" id="Path-3" stroke="#979797" transform="translate(1832.724117, 1041.949325) rotate(56.000000) translate(-1832.724117, -1041.949325) "></path>
                <path d="M1793.24324,384.676481 C1745.39059,388.126617 1742.64935,455.387094 1756.8441,455.387094 C1771.03885,455.387094 1759.72526,441.018714 1761.16329,431.3201 C1762.60132,421.621485 1772.57223,409.56945 1815.91732,406.414113 C1859.26242,403.258775 1863.88835,436.456377 1871.72222,438.669365 C1878.12635,440.478469 1878.19896,424.812197 1870.07146,409.119139 C1861.94397,393.426082 1841.09589,381.226345 1793.24324,384.676481 Z" id="Path-3" stroke="#979797" transform="translate(1812.849531, 419.737846) rotate(45.000000) translate(-1812.849531, -419.737846) "></path>
                <path d="M1399.88101,196.59861 C1452.62241,196.59861 1514.85014,255.700756 1504.05246,312.877644 C1496.854,350.995569 1455.66234,367.341522 1380.47747,361.915505 C1399.46037,359.354614 1410.1801,356.798771 1412.63667,354.247975 C1416.32153,350.421782 1408.95181,346.55016 1412.63667,346.55016 C1415.09324,346.55016 1422.05745,345.189073 1433.5293,342.466899 C1379.14991,341.799366 1345.79523,333.619368 1333.46527,317.926905 C1321.1353,302.234441 1312.83344,283.347451 1308.55968,261.265933 C1304.87206,271.13529 1302.99968,278.372431 1302.94256,282.977357 C1302.76935,296.939284 1308.28925,308.991684 1310.62278,316.027162 C1315.85477,331.801374 1275.63317,289.32046 1296.88676,252.381896 C1318.14035,215.443332 1347.13962,196.59861 1399.88101,196.59861 Z M1411.88071,211.915625 C1321.01181,187.399509 1323.59235,276.704629 1327.20511,276.704629 C1330.81787,276.704629 1328.1745,265.733942 1343.85492,241.587027 C1359.53534,217.440111 1389.92581,223.737794 1392.58077,223.737794 C1395.23574,223.737794 1404.46576,232.136637 1394.23735,232.136637 C1384.00893,232.136637 1364.97284,258.721053 1371.1729,250.965896 C1375.32695,245.769941 1386.89435,244.873969 1393.2904,244.848467 L1393.84902,244.848418 C1396.66035,244.85925 1398.28418,245.034515 1397.47398,245.034515 C1395.78,245.034515 1394.14672,248.37769 1392.53577,251.685045 L1392.25982,252.251039 C1391.47853,253.850121 1390.702,255.3952 1389.92581,256.499081 C1387.46028,260.005525 1408.67002,259.869249 1404.46576,261.972343 C1400.26151,264.075436 1375.95319,303.05612 1375.95319,311.007475 C1375.95319,318.958831 1389.39617,327.794881 1408.67002,327.794881 C1427.94386,327.794881 1416.8688,326.423073 1443.31307,318.715274 C1469.75735,311.007475 1502.74962,236.431742 1411.88071,211.915625 Z" id="Combined-Shape"></path>
                <path d="M1673.38776,618.777961 C1726.12916,618.777961 1788.35689,677.880107 1777.55921,735.056995 C1770.36075,773.17492 1729.16909,789.520874 1653.98422,784.094856 C1672.96712,781.533965 1683.68685,778.978122 1686.14342,776.427327 C1689.82828,772.601134 1682.45857,768.729511 1686.14342,768.729511 C1688.59999,768.729511 1695.5642,767.368424 1707.03605,764.646251 C1652.65666,763.978717 1619.30198,755.798719 1606.97202,740.106256 C1594.64205,724.413793 1586.34019,705.526803 1582.06643,683.445285 C1578.37881,693.314641 1576.50643,700.551783 1576.44931,705.156708 C1576.2761,719.118636 1581.796,731.171036 1584.12953,738.206513 C1589.36152,753.980726 1549.13992,711.499812 1570.39351,674.561248 C1591.6471,637.622684 1620.64637,618.777961 1673.38776,618.777961 Z M1685.38747,634.094977 C1594.51856,609.57886 1597.0991,698.88398 1600.71186,698.88398 C1604.32462,698.88398 1601.68125,687.913294 1617.36167,663.766378 C1633.04209,639.619463 1663.43256,645.917146 1666.08752,645.917146 C1668.74249,645.917146 1677.97251,654.315989 1667.7441,654.315989 C1657.51568,654.315989 1638.47959,680.900405 1644.67966,673.145247 C1648.8337,667.949292 1660.40111,667.05332 1666.79715,667.027818 L1667.35578,667.02777 C1670.1671,667.038602 1671.79093,667.213867 1670.98073,667.213867 C1669.28675,667.213867 1667.65347,670.557042 1666.04252,673.864397 L1665.76657,674.43039 C1664.98528,676.029473 1664.20875,677.574552 1663.43256,678.678432 C1660.96703,682.184877 1682.17677,682.048601 1677.97251,684.151694 C1673.76826,686.254788 1649.45994,725.235471 1649.45994,733.186827 C1649.45994,741.138183 1662.90292,749.974232 1682.17677,749.974232 C1701.45062,749.974232 1690.37555,748.602425 1716.81982,740.894626 C1743.2641,733.186827 1776.25638,658.611093 1685.38747,634.094977 Z" id="Combined-Shape" transform="translate(1671.469240, 701.943511) rotate(30.000000) translate(-1671.469240, -701.943511) "></path>
                <path d="M993.441669,487.664958 C1040.11542,484.487972 1073.82755,492.001232 1094.57807,510.204736 C1115.57018,528.620181 1129.74722,567.20417 1129.74722,600.549768 C1129.74722,705.183442 1061.75853,724.442102 1035.13006,734.779061 C1065.69341,716.158139 1083.75,697.595894 1089.29982,679.092325 C1060.84152,711.817721 1023.66536,728.955267 977.771343,730.504963 C850.755279,734.793895 883.266363,573.849576 883.266363,608.732478 C883.266363,643.615379 908.158055,683.62551 925.84739,700.865052 C942.475366,717.070222 981.379854,717.625056 989.283351,717.633298 L989.943608,717.632908 C990.00606,717.632788 990.06481,717.632661 990.119796,717.632545 L990.404015,717.632123 C994.370886,717.632123 974.050829,705.183442 983.562627,705.183442 C989.903825,705.183442 994.108192,701.476115 996.175728,694.061462 C930.394953,687.354523 897.504566,659.623353 897.504566,610.867952 C897.504566,537.734851 945.726336,501.930465 1003.46912,501.930465 C1061.21189,501.930465 1091,565.030735 1091,549.168527 C1091,533.30632 1085.2392,528.184143 1068.76635,511.493979 C1057.78445,500.367204 1032.67622,492.424197 993.441669,487.664958 Z M1000.99156,515.960751 C922.730267,510.553906 910.691634,613.255466 910.691634,615.192587 C910.691634,617.129707 917.586318,613.255466 917.586318,608.146515 C917.586318,604.570249 921.414979,592.915109 926.604969,581.049034 L927.053101,580.031609 C929.159407,575.282926 931.472247,570.536462 933.833711,566.295764 C939.456243,556.198863 954.0522,548.044509 977.621582,541.832702 C973.801603,548.02389 966.463607,555.130191 955.607594,563.151606 C939.323575,575.183727 940.196093,603.454289 942.788415,607.081099 C943.825344,608.531823 943.926205,609.27138 944.330233,608.376359 L944.393266,608.229731 C945.027558,606.691589 946.429534,601.619673 952.377161,590.198851 C959.213513,577.07147 970.166925,568.055722 985.237395,563.151606 C979.687573,571.814929 974.502927,579.825491 969.683459,587.183292 C962.454256,598.219994 969.458818,605.512683 971.911147,601.295783 C974.363476,597.078884 1001.99267,583.668803 992.57729,593.263246 C983.161909,602.857688 971.168042,656.79428 989.025361,682.738669 C1035.96472,684.577306 1070.27779,628.690571 1075.31105,607.081099 C1080.3443,585.471627 1079.25284,521.367595 1000.99156,515.960751 Z" id="Combined-Shape"></path>
                <path d="M1004.20556,1367.29995 C1050.8793,1364.12296 1084.59144,1371.63622 1105.34196,1389.83973 C1126.33407,1408.25517 1140.51111,1446.83916 1140.51111,1480.18476 C1140.51111,1584.81843 1072.52242,1604.07709 1045.89395,1614.41405 C1076.4573,1595.79313 1094.51389,1577.23088 1100.06371,1558.72731 C1071.60541,1591.45271 1034.42925,1608.59026 988.535231,1610.13995 C861.519168,1614.42888 894.030252,1453.48457 894.030252,1488.36747 C894.030252,1523.25037 918.921944,1563.2605 936.611279,1580.50004 C953.239254,1596.70521 992.143742,1597.26005 1000.04724,1597.26829 L1000.7075,1597.2679 C1000.76995,1597.26778 1000.8287,1597.26765 1000.88368,1597.26753 L1001.1679,1597.26711 C1005.13478,1597.26711 984.814718,1584.81843 994.326516,1584.81843 C1000.66771,1584.81843 1004.87208,1581.1111 1006.93962,1573.69645 C941.158842,1566.98951 908.268454,1539.25834 908.268454,1490.50294 C908.268454,1417.36984 956.490225,1381.56545 1014.233,1381.56545 C1071.97578,1381.56545 1101.76389,1444.66572 1101.76389,1428.80352 C1101.76389,1412.94131 1096.00308,1407.81913 1079.53024,1391.12897 C1068.54834,1380.00219 1043.44011,1372.05919 1004.20556,1367.29995 Z M1011.75544,1395.59574 C933.494156,1390.1889 921.455523,1492.89046 921.455523,1494.82758 C921.455523,1496.7647 928.350206,1492.89046 928.350206,1487.7815 C928.350206,1484.20524 932.178867,1472.5501 937.368857,1460.68402 L937.81699,1459.6666 C939.923296,1454.91792 942.236136,1450.17145 944.597599,1445.93075 C950.220132,1435.83385 964.816089,1427.6795 988.385471,1421.46769 C984.565491,1427.65888 977.227495,1434.76518 966.371482,1442.7866 C950.087463,1454.81872 950.959981,1483.08928 953.552304,1486.71609 C954.589233,1488.16681 954.690094,1488.90637 955.094122,1488.01135 L955.157154,1487.86472 C955.791446,1486.32658 957.193423,1481.25466 963.141049,1469.83384 C969.977402,1456.70646 980.930813,1447.69071 996.001284,1442.7866 C990.451461,1451.44992 985.266816,1459.46048 980.447347,1466.81828 C973.218145,1477.85498 980.222706,1485.14767 982.675036,1480.93077 C985.127365,1476.71387 1012.75656,1463.30379 1003.34118,1472.89823 C993.925798,1482.49268 981.93193,1536.42927 999.789249,1562.37366 C1046.7286,1564.21229 1081.04168,1508.32556 1086.07494,1486.71609 C1091.10819,1465.10662 1090.01673,1401.00258 1011.75544,1395.59574 Z" id="Combined-Shape" transform="translate(1015.407096, 1490.502941) rotate(-64.000000) translate(-1015.407096, -1490.502941) "></path>
                <path d="M2201.68305,1075.617 C2253.95299,1072.44001 2291.70722,1079.95327 2314.94573,1098.15678 C2338.4548,1116.57222 2354.33167,1155.15621 2354.33167,1188.50181 C2354.33167,1293.13548 2278.19112,1312.39414 2248.36989,1322.7311 C2282.59779,1304.11018 2302.81937,1285.54793 2309.03462,1267.04437 C2277.16416,1299.76976 2235.53057,1316.90731 2184.13385,1318.457 C2041.88853,1322.74594 2078.2977,1161.80162 2078.2977,1196.68452 C2078.2977,1231.56742 2106.17391,1271.57755 2125.9842,1288.81709 C2144.60587,1305.02226 2188.17502,1305.5771 2197.02615,1305.58534 L2197.76557,1305.58495 C2197.83551,1305.58483 2197.9013,1305.5847 2197.96288,1305.58459 L2198.28118,1305.58416 C2200.32473,1305.58416 2196.61298,1302.95002 2193.04525,1300.10515 L2192.58119,1299.73308 C2188.57487,1296.50161 2185.08033,1293.13548 2190.61951,1293.13548 C2197.72102,1293.13548 2202.42949,1289.42816 2204.74492,1282.0135 C2131.07702,1275.30656 2094.24306,1247.57539 2094.24306,1198.81999 C2094.24306,1125.68689 2148.24664,1089.88251 2212.91279,1089.88251 C2277.57894,1089.88251 2310.93865,1152.98278 2310.93865,1137.12057 C2310.93865,1121.25836 2304.48712,1116.13618 2286.03917,1099.44602 C2273.74054,1088.31924 2245.62184,1080.37624 2201.68305,1075.617 Z M2210.13817,1103.91279 C2122.49333,1098.50595 2109.01127,1201.20751 2109.01127,1203.14463 C2109.01127,1205.08175 2116.73262,1201.20751 2116.73262,1196.09856 C2116.73262,1190.9896 2125.48307,1169.39316 2134.92808,1154.2478 C2141.22476,1144.1509 2157.57077,1135.99655 2183.96613,1129.78474 C2179.68813,1135.97593 2171.47031,1143.08223 2159.31266,1151.10365 C2141.07618,1163.13577 2142.05332,1191.40633 2144.95646,1195.03314 C2147.8596,1198.65995 2144.21085,1197.84196 2155.6949,1178.15089 C2163.35093,1165.02351 2175.61766,1156.00776 2192.49508,1151.10365 C2186.27983,1159.76697 2180.47355,1167.77753 2175.07622,1175.13533 C2166.98024,1186.17204 2174.82465,1193.46472 2177.57101,1189.24782 C2180.31738,1185.03093 2211.25932,1171.62084 2200.71503,1181.21529 C2190.17074,1190.80973 2176.73881,1244.74632 2196.73722,1270.69071 C2249.30462,1272.52935 2287.73184,1216.64261 2293.36858,1195.03314 C2299.00533,1173.42367 2297.783,1109.31964 2210.13817,1103.91279 Z" id="Combined-Shape" transform="translate(2214.227654, 1198.819993) rotate(105.000000) translate(-2214.227654, -1198.819993) "></path>
                <path d="M450.667969,607.874944 C484.436358,607.874944 518.55803,649.739388 518.55803,655.321935 C518.55803,658.201355 518.357158,667.103387 517.594255,675.540046 L517.498004,676.570339 C516.77121,684.102295 515.579347,691.045477 513.660917,692.702246 C509.518854,696.279361 518.55803,670.495444 494.565699,653.584847 C478.570812,642.311116 469.684313,635.651043 467.906202,633.604629 C479.639083,661.91474 484.002233,684.539404 480.99565,701.478621 C476.485777,726.887448 451.652879,776.162948 443.433271,777.676857 C435.213663,779.190767 431.065098,788.474196 434.617137,790.685182 C438.169176,792.896168 466.108717,804.294552 487.645777,768.584361 C502.003816,744.777567 510.67553,726.452105 513.660917,713.607975 C523.247758,771.79762 505.79085,807.790633 461.290191,821.587016 C394.539204,842.281589 363.728883,745.069051 367.80966,701.478621 C371.890438,657.888192 416.899579,607.874944 450.667969,607.874944 Z M433.648913,631.085212 L433.078122,631.085778 C423.601718,631.109772 406.629173,632.127015 385.766436,673.866883 C364.477929,716.458584 385.766436,749.827698 385.766436,741.134016 C385.766436,737.230698 386.730874,722.815115 392.999309,706.468874 C395.025419,701.185373 399.524593,693.227932 406.49683,682.596553 C406.192542,687.312268 405.397928,693.199193 404.112988,700.257326 C402.185577,710.844525 408.647938,737.379663 411.343601,732.086711 C412.535857,729.745709 412.789818,719.614017 415.433416,709.223286 C416.327513,705.709017 418.41008,700.657002 421.681118,694.067243 C420.724491,702.334997 420.724491,709.698388 421.681118,716.157415 C423.116058,725.845957 433.648913,749.272975 438.410949,753.092772 C443.172986,756.91257 456.9168,749.272975 465.67601,703.486246 C474.43522,657.699518 443.004971,631.085212 433.648913,631.085212 L433.648913,631.085212 Z" id="Combined-Shape" transform="translate(443.004971, 716.157415) rotate(18.000000) translate(-443.004971, -716.157415) "></path>
                <g id="Outer-Craters" transform="translate(0.127757, 0.190143)">
                    <path d="M507.408368,429.391255 C525.789941,421.964618 545.494681,426.206938 572.311658,434.475904 C576.77144,435.851069 584.68842,437.128457 596.062598,438.308066 C547.13968,475.425355 501.118175,511.840206 457.998081,547.55262 C393.317941,601.121241 397.313285,625.892587 349.85771,685.190731 C344.420025,667.404867 341.263328,661.163987 323.441551,636.30187 C305.619773,611.439753 373.960182,525.436356 414.045986,490.768209 C454.13179,456.100061 472.957901,443.310148 507.408368,429.391255 Z M469.178422,484.052974 C471.640801,476.755803 527.415068,436.605964 516.751518,438.416407 C506.087967,440.22685 424.103001,509.488888 402.658654,529.216442 C381.214307,548.943997 367.695231,567.352807 343.192694,596.870917 C326.857669,616.549658 329.379389,639.031872 350.757853,664.317559 C388.34313,612.363032 413.579294,579.795859 426.466346,566.616043 C445.796923,546.846318 533.843192,468.463355 532.764216,465.792796 C532.253123,464.527795 527.561671,467.491941 522.690991,470.779632 L522.040856,471.219565 L522.040856,471.219565 L521.390705,471.661276 C516.411532,475.049279 511.616715,478.412601 511.280095,477.579438 C510.584901,475.858773 529.656424,453.150956 524.492151,452.636603 C519.327877,452.122249 466.716044,491.350145 469.178422,484.052974 Z" id="Combined-Shape" transform="translate(458.298860, 555.370764) rotate(-5.000000) translate(-458.298860, -555.370764) "></path>
                    <path d="M238.380442,1118.01286 C256.762014,1110.58622 276.466754,1114.82854 303.283732,1123.09751 C307.743514,1124.47267 315.660493,1125.75006 327.034671,1126.92967 C278.111753,1164.04696 232.090248,1200.46181 188.970154,1236.17422 C124.290014,1289.74284 128.285358,1314.51419 80.8297829,1373.81233 C75.3920986,1356.02647 72.235401,1349.78559 54.4136238,1324.92347 C36.5918465,1300.06136 104.932255,1214.05796 145.018059,1179.38981 C185.103863,1144.72166 203.929975,1131.93175 238.380442,1118.01286 Z M200.150495,1172.67458 C202.612874,1165.37741 258.387141,1125.22757 247.723591,1127.03801 C237.060041,1128.84845 155.075074,1198.11049 133.630727,1217.83805 C112.18638,1237.5656 98.6673046,1255.97441 74.1647674,1285.49252 C57.8297426,1305.17126 60.351462,1327.65347 81.7299257,1352.93916 C119.315203,1300.98463 144.551367,1268.41746 157.438419,1255.23765 C176.768996,1235.46792 264.815265,1157.08496 263.73629,1154.4144 C263.225196,1153.1494 258.533744,1156.11354 253.663064,1159.40123 L253.012929,1159.84117 L253.012929,1159.84117 L252.362778,1160.28288 C247.383605,1163.67088 242.588788,1167.0342 242.252168,1166.20104 C241.556975,1164.48038 260.628498,1141.77256 255.464224,1141.25821 C250.29995,1140.74385 197.688117,1179.97175 200.150495,1172.67458 Z" id="Combined-Shape" transform="translate(189.270933, 1243.992367) rotate(-41.000000) translate(-189.270933, -1243.992367) "></path>
                    <path d="M2619.56781,1346.10272 C2637.94938,1338.67609 2657.65412,1342.91841 2684.4711,1351.18737 C2688.93088,1352.56254 2696.84786,1353.83993 2708.22204,1355.01954 C2659.29912,1392.13682 2613.27762,1428.55168 2570.15752,1464.26409 C2505.47738,1517.83271 2509.47273,1542.60406 2462.01715,1601.9022 C2456.57947,1584.11634 2453.42277,1577.87546 2435.60099,1553.01334 C2417.77921,1528.15122 2486.11962,1442.14783 2526.20543,1407.47968 C2566.29123,1372.81153 2585.11734,1360.02162 2619.56781,1346.10272 Z M2581.33786,1400.76444 C2583.80024,1393.46727 2639.57451,1353.31743 2628.91096,1355.12788 C2618.24741,1356.93832 2536.26244,1426.20036 2514.81809,1445.92791 C2493.37375,1465.65547 2479.85467,1484.06428 2455.35213,1513.58239 C2439.01711,1533.26113 2441.53883,1555.74334 2462.91729,1581.02903 C2500.50257,1529.0745 2525.73873,1496.50733 2538.62579,1483.32751 C2557.95636,1463.55779 2646.00263,1385.17482 2644.92366,1382.50427 C2644.41256,1381.23926 2639.72111,1384.20341 2634.85043,1387.4911 L2634.2003,1387.93103 L2634.2003,1387.93103 L2633.55015,1388.37275 C2628.57097,1391.76075 2623.77616,1395.12407 2623.43954,1394.29091 C2622.74434,1392.57024 2641.81586,1369.86243 2636.65159,1369.34807 C2631.48732,1368.83372 2578.87548,1408.06161 2581.33786,1400.76444 Z" id="Combined-Shape" transform="translate(2570.458301, 1472.082234) rotate(142.000000) translate(-2570.458301, -1472.082234) "></path>
                    <path d="M984.636936,2301.79392 C1003.01851,2294.36728 1022.72325,2298.6096 1049.54023,2306.87856 C1054.00001,2308.25373 1061.91699,2309.53112 1073.29117,2310.71073 C1024.36825,2347.82802 978.346743,2384.24287 935.226649,2419.95528 C870.546509,2473.5239 874.541853,2498.29525 827.086278,2557.59339 C821.648594,2539.80753 818.491896,2533.56665 800.670119,2508.70453 C782.848341,2483.84241 851.18875,2397.83902 891.274554,2363.17087 C931.360358,2328.50272 950.18647,2315.71281 984.636936,2301.79392 Z M946.40699,2356.45563 C948.869369,2349.15846 1004.64364,2309.00862 993.980086,2310.81907 C983.316536,2312.62951 901.331569,2381.89155 879.887222,2401.6191 C858.442875,2421.34666 844.9238,2439.75547 820.421262,2469.27358 C804.086238,2488.95232 806.607957,2511.43453 827.986421,2536.72022 C865.571698,2484.76569 890.807862,2452.19852 903.694914,2439.0187 C923.025491,2419.24898 1011.07176,2340.86602 1009.99278,2338.19546 C1009.48169,2336.93046 1004.79024,2339.8946 999.919559,2343.18229 L999.269424,2343.62223 L999.269424,2343.62223 L998.619273,2344.06394 C993.6401,2347.45194 988.845283,2350.81526 988.508663,2349.9821 C987.81347,2348.26143 1006.88499,2325.55362 1001.72072,2325.03926 C996.556445,2324.52491 943.944612,2363.75281 946.40699,2356.45563 Z" id="Combined-Shape" transform="translate(935.527428, 2427.773425) scale(-1, -1) rotate(68.000000) translate(-935.527428, -2427.773425) "></path>
                    <path d="M1307.45763,37.9339513 C1307.66452,38.0671583 1307.88506,38.2080155 1308.11887,38.3564115 L1308.85968,38.8241042 C1321.33645,46.6654747 1363.44808,71.6189714 1391.0173,101.342537 C1419.73524,132.304585 1437.6931,165.898004 1435.78288,169.935668 C1433.87265,173.973333 1423.31614,194.727649 1423.31614,201.385513 C1423.31614,205.912861 1400.58709,179.928586 1377.8322,153.94376 L1375.82493,151.651756 C1365.794,140.199492 1355.88801,128.921785 1348.05645,120.438593 C1330.653,101.587056 1304.00623,77.2911474 1268.11616,47.5508664 C1287.44763,36.6993585 1300.56145,33.4937202 1307.45763,37.9339513 Z M1302.77081,42.048571 C1298.1866,40.3773694 1290.1199,42.7336046 1278.57072,49.1172767 C1294.7579,61.7784725 1308.24414,73.2605164 1319.02945,83.5634083 C1325.66242,89.8996869 1336.79279,101.204375 1347.73942,112.641043 L1349.33951,114.315083 C1364.5176,130.216743 1378.89921,145.917506 1379.90597,148.421731 C1381.67221,152.815107 1397.4232,157.369632 1397.4232,153.228947 C1397.4232,151.282825 1389.60786,139.836232 1381.65995,128.063555 L1380.13838,125.807613 C1371.69845,113.278969 1363.66346,101.044026 1365.28324,100.148491 C1366.80584,99.3066881 1372.60844,103.777472 1378.33151,108.391684 L1379.06134,108.981114 C1379.30425,109.177584 1379.54668,109.373916 1379.7883,109.569711 L1380.51036,110.155088 C1386.14207,114.721679 1391.1377,118.771806 1391.1377,117.136312 C1391.1377,113.656538 1368.20754,88.2316089 1352.0189,75.7214272 C1347.16231,71.9683727 1341.40622,67.6622061 1335.54175,63.4048859 L1334.36765,62.5542515 C1321.05008,52.9251522 1307.44671,43.7531967 1302.77081,42.048571 Z" id="Combined-Shape" transform="translate(1352.018902, 118.951276) rotate(-46.000000) translate(-1352.018902, -118.951276) "></path>
                    <path d="M1940.55668,193.709793 C1940.76356,193.843 1940.98411,193.983858 1941.21792,194.132254 L1941.95873,194.599946 C1954.43549,202.441317 1996.54713,227.394814 2024.11635,257.11838 C2052.83429,288.080427 2070.79215,321.673846 2068.88192,325.711511 C2066.9717,329.749175 2056.41518,350.503491 2056.41518,357.161355 C2056.41518,361.688703 2033.68614,335.704428 2010.93125,309.719602 L2008.92398,307.427598 C1998.89305,295.975334 1988.98705,284.697627 1981.1555,276.214435 C1963.75204,257.362898 1937.10528,233.06699 1901.2152,203.326709 C1920.54668,192.475201 1933.6605,189.269562 1940.55668,193.709793 Z M1935.86986,197.824413 C1931.28565,196.153211 1923.21895,198.509447 1911.66977,204.893119 C1927.85695,217.554315 1941.34319,229.036359 1952.1285,239.33925 C1958.76147,245.675529 1969.89184,256.980217 1980.83847,268.416885 L1982.43856,270.090925 C1997.61664,285.992585 2011.99825,301.693349 2013.00501,304.197573 C2014.77126,308.590949 2030.52225,313.145474 2030.52225,309.004789 C2030.52225,307.058667 2022.70691,295.612074 2014.759,283.839397 L2013.23743,281.583455 C2004.7975,269.054811 1996.76251,256.819868 1998.38229,255.924333 C1999.90488,255.08253 2005.70749,259.553314 2011.43056,264.167526 L2012.16039,264.756956 C2012.4033,264.953426 2012.64573,265.149758 2012.88735,265.345553 L2013.60941,265.93093 C2019.24112,270.497521 2024.23675,274.547648 2024.23675,272.912154 C2024.23675,269.43238 2001.30659,244.007451 1985.11795,231.497269 C1980.26136,227.744215 1974.50526,223.438048 1968.6408,219.180728 L1967.46669,218.330094 C1954.14912,208.700994 1940.54575,199.529039 1935.86986,197.824413 Z" id="Combined-Shape" transform="translate(1985.117950, 274.727118) rotate(-16.000000) translate(-1985.117950, -274.727118) "></path>
                    <path d="M2526.77214,1048.37301 C2526.97902,1048.50622 2527.19957,1048.64708 2527.43338,1048.79548 L2528.17419,1049.26317 C2540.65095,1057.10454 2582.76259,1082.05803 2610.33181,1111.7816 C2639.04975,1142.74365 2657.00761,1176.33707 2655.09738,1180.37473 C2653.18716,1184.4124 2642.63065,1205.16671 2642.63065,1211.82458 C2642.63065,1216.35192 2619.9016,1190.36765 2597.14671,1164.38282 L2595.13944,1162.09082 C2585.10851,1150.63856 2575.20252,1139.36085 2567.37096,1130.87766 C2549.96751,1112.02612 2523.32074,1087.73021 2487.43066,1057.98993 C2506.76214,1047.13842 2519.87596,1043.93278 2526.77214,1048.37301 Z M2522.08532,1052.48763 C2517.50111,1050.81643 2509.43441,1053.17267 2497.88523,1059.55634 C2514.07241,1072.21754 2527.55865,1083.69958 2538.34396,1094.00247 C2544.97693,1100.33875 2556.1073,1111.64344 2567.05393,1123.08011 L2568.65402,1124.75415 C2583.8321,1140.65581 2598.21372,1156.35657 2599.22048,1158.86079 C2600.98672,1163.25417 2616.73771,1167.8087 2616.73771,1163.66801 C2616.73771,1161.72189 2608.92237,1150.2753 2600.97446,1138.50262 L2599.45289,1136.24668 C2591.01296,1123.71803 2582.97797,1111.48309 2584.59775,1110.58755 C2586.12035,1109.74575 2591.92295,1114.21654 2597.64602,1118.83075 L2598.37585,1119.42018 C2598.61876,1119.61665 2598.86119,1119.81298 2599.10281,1120.00877 L2599.82487,1120.59415 C2605.45658,1125.16074 2610.45221,1129.21087 2610.45221,1127.57538 C2610.45221,1124.0956 2587.52205,1098.67067 2571.33341,1086.16049 C2566.47682,1082.40744 2560.72072,1078.10127 2554.85626,1073.84395 L2553.68216,1072.99332 C2540.36459,1063.36422 2526.76122,1054.19226 2522.08532,1052.48763 Z" id="Combined-Shape" transform="translate(2571.333411, 1129.390339) scale(-1, 1) rotate(-127.000000) translate(-2571.333411, -1129.390339) "></path>
                    <path d="M262.949943,1788.44032 C263.156828,1788.57353 263.377375,1788.71438 263.611183,1788.86278 L264.351994,1789.33047 C276.828759,1797.17184 318.940397,1822.12534 346.509615,1851.84891 C375.227551,1882.81095 393.185414,1916.40437 391.275188,1920.44204 C389.364962,1924.4797 378.808449,1945.23402 378.808449,1951.89188 C378.808449,1956.41923 356.079408,1930.43495 333.324517,1904.45013 L331.317243,1902.15812 C321.286314,1890.70586 311.38032,1879.42815 303.548765,1870.94496 C286.14531,1852.09342 259.498544,1827.79752 223.608469,1798.05724 C242.939941,1787.20573 256.053766,1784.00009 262.949943,1788.44032 Z M258.263124,1792.55494 C253.678912,1790.88374 245.612215,1793.23997 234.063033,1799.62365 C250.250213,1812.28484 263.736458,1823.76689 274.521768,1834.06978 C281.154733,1840.40606 292.285103,1851.71074 303.231735,1863.14741 L304.831826,1864.82145 C320.009908,1880.72311 334.39152,1896.42388 335.39828,1898.9281 C337.164526,1903.32148 352.915513,1907.876 352.915513,1903.73532 C352.915513,1901.78919 345.100177,1890.3426 337.152261,1878.56992 L335.630697,1876.31398 C327.190762,1863.78534 319.155772,1851.55039 320.775555,1850.65486 C322.29815,1849.81306 328.100756,1854.28384 333.82382,1858.89805 L334.553656,1859.48748 C334.796567,1859.68395 335.038998,1859.88028 335.280613,1860.07608 L336.002674,1860.66146 C341.634383,1865.22805 346.630013,1869.27817 346.630013,1867.64268 C346.630013,1864.16291 323.699851,1838.73798 307.511215,1826.2278 C302.654624,1822.47474 296.898528,1818.16857 291.034063,1813.91125 L289.859959,1813.06062 C276.542389,1803.43152 262.93902,1794.25957 258.263124,1792.55494 Z" id="Combined-Shape" transform="translate(307.511215, 1869.457645) scale(-1, 1) rotate(-289.000000) translate(-307.511215, -1869.457645) "></path>
                    <path d="M1889.59198,2335.43878 C1897.23589,2340.37676 1930.11733,2359.49462 1951.33847,2382.44985 C1972.55961,2405.40508 1985.82959,2430.31121 1984.41802,2433.30474 C1983.71224,2434.8015 1981.40916,2439.39668 1979.28253,2444.2347 L1978.89821,2445.11638 C1976.92668,2449.67898 1975.20572,2454.30313 1975.20572,2456.62162 C1975.20572,2459.83011 1959.85935,2442.36927 1943.81926,2423.9962 L1942.33709,2422.29821 L1942.33709,2422.29821 L1940.85354,2420.59849 L1940.85354,2420.59849 L1939.37118,2418.90049 C1932.21339,2410.70324 1925.18674,2402.68743 1919.59251,2396.60765 C1906.73222,2382.63114 1887.04157,2364.61817 1860.52057,2342.56876 C1874.80558,2334.52346 1884.49605,2332.1468 1889.59198,2335.43878 Z M1886.10057,2338.45109 C1882.70636,2337.21238 1876.73366,2338.95884 1868.18249,2343.69049 C1880.1677,2353.0751 1890.1531,2361.58572 1898.13869,2369.22233 C1899.5761,2370.59692 1901.29876,2372.28698 1903.21977,2374.20262 L1904.19641,2375.17883 C1918.42022,2389.42863 1942.08783,2414.4955 1943.21249,2417.29601 C1944.52025,2420.55243 1956.18249,2423.92829 1956.18249,2420.85917 C1956.18249,2419.35531 1949.89296,2410.19753 1943.75983,2401.09157 L1943.01005,2399.97733 C1936.90043,2390.88844 1931.2103,2382.16588 1932.38563,2381.51537 C1934.78425,2380.18781 1951.52862,2396.68617 1951.52862,2394.10693 C1951.52862,2391.52768 1934.55082,2372.68245 1922.56453,2363.40977 C1918.23958,2360.06396 1912.95118,2356.12508 1907.71852,2352.36943 L1906.82223,2351.72755 C1897.86857,2345.32955 1889.24984,2339.60041 1886.10057,2338.45109 Z" id="Combined-Shape" transform="translate(1922.520569, 2395.504954) rotate(-252.000000) translate(-1922.520569, -2395.504954) "></path>
                    <path d="M2326.04631,545.13353 C2326.2532,545.266737 2326.47375,545.407594 2326.70755,545.55599 L2327.44837,546.023683 C2339.92513,553.865054 2382.03677,578.81855 2409.60599,608.542116 C2438.32392,639.504164 2456.28179,673.097583 2454.37156,677.135247 C2452.46133,681.172912 2441.90482,701.927227 2441.90482,708.585092 C2441.90482,713.112439 2419.17578,687.128164 2396.42089,661.143338 L2394.41361,658.851334 C2384.38269,647.399071 2374.47669,636.121363 2366.64514,627.638172 C2349.24168,608.786635 2322.59492,584.490726 2286.70484,554.750445 C2306.03631,543.898937 2319.15014,540.693299 2326.04631,545.13353 Z M2321.3595,549.24815 C2316.77528,547.576948 2308.70859,549.933183 2297.1594,556.316856 C2313.34658,568.978051 2326.83283,580.460095 2337.61814,590.762987 C2344.2511,597.099266 2355.38147,608.403953 2366.32811,619.840622 L2367.9282,621.514662 C2383.10628,637.416322 2397.48789,653.117085 2398.49465,655.62131 C2400.2609,660.014686 2416.01188,664.569211 2416.01188,660.428526 C2416.01188,658.482404 2408.19655,647.035811 2400.24863,635.263134 L2398.72707,633.007192 C2390.28713,620.478547 2382.25214,608.243605 2383.87193,607.34807 C2385.39452,606.506267 2391.19713,610.977051 2396.92019,615.591263 L2397.65003,616.180692 C2397.89294,616.377163 2398.13537,616.573495 2398.37698,616.76929 L2399.09905,617.354666 C2404.73075,621.921257 2409.72638,625.971385 2409.72638,624.335891 C2409.72638,620.856116 2386.79622,595.431188 2370.60759,582.921006 C2365.751,579.167952 2359.9949,574.861785 2354.13043,570.604465 L2352.95633,569.75383 C2339.63876,560.124731 2326.03539,550.952776 2321.3595,549.24815 Z" id="Combined-Shape" transform="translate(2370.607587, 626.150855) rotate(10.000000) translate(-2370.607587, -626.150855) "></path>
                    <path d="M1272.2512,2085.09946 C1318.8324,2112.37911 1351.16283,2172.20148 1344.35122,2236.06733 C1337.53961,2299.93318 1259.13962,2343.74558 1168.32755,2324.89287 C1077.51549,2306.04016 1038.28706,2224.0118 1040.52929,2163.04454 C1042.77153,2102.07728 1070.67303,2089.64568 1080.47989,2085.68345 C1090.28676,2081.72122 1082.72793,2095.84738 1073.15115,2099.71665 C1063.57437,2103.58592 1054.73817,2145.45837 1074.75608,2129.11649 C1094.77398,2112.77462 1119.93916,2103.83526 1156.41619,2104.93709 C1192.89323,2106.03892 1296.1598,2161.1708 1291.50014,2235.71505 C1286.84049,2310.25929 1315.80388,2273.72171 1308.77405,2228.73594 C1301.74423,2183.75016 1257.56716,2132.50759 1264.47236,2134.34199 C1271.37757,2136.17638 1306.69377,2170.34782 1315.45667,2192.03676 C1324.21957,2213.7257 1351.45132,2200.86772 1292.21405,2134.50925 C1232.97678,2068.15077 1169.40974,2080.84409 1167.14365,2075.23532 C1164.87756,2069.62655 1225.67001,2057.81982 1272.2512,2085.09946 Z M1219.12504,2145.34707 C1190.03756,2122.42695 1162.7189,2117.90373 1118.98694,2121.72196 C1075.25498,2125.54019 1085.50405,2149.59654 1106.43537,2184.48557 C1127.3667,2219.37459 1178.09941,2225.06309 1176.68253,2229.69445 C1175.26566,2234.32581 1128.34086,2226.81552 1136.12459,2246.08092 C1143.90832,2265.34632 1169.67608,2245.75176 1161.12297,2258.35054 C1152.56986,2270.94933 1117.90689,2247.23125 1133.58436,2269.47686 C1149.26183,2291.72248 1199.60852,2286.43827 1185.2952,2294.12855 C1170.98187,2301.81883 1150.13567,2290.7054 1121.51293,2279.53822 C1092.8902,2268.37104 1059.06219,2194.71508 1063.80345,2222.49456 C1068.54471,2250.27405 1114.93312,2302.45068 1175.55133,2316.31274 C1236.16953,2330.17479 1276.6275,2287.67066 1281.54666,2249.95978 C1286.46581,2212.24889 1248.21252,2168.26719 1219.12504,2145.34707 Z" id="Combined-Shape" transform="translate(1192.847968, 2198.563905) rotate(-4.000000) translate(-1192.847968, -2198.563905) "></path>
                </g>
            </g>
        </g>
    </g>
</svg>