<?xml version="1.0" encoding="UTF-8"?>
<svg width="287px" height="233px" viewBox="0 0 287 233" version="1.1" xmlns="http://www.w3.org/2000/svg" xmlns:xlink="http://www.w3.org/1999/xlink">
    <title>Saturn</title>
    <defs>
        <circle id="path-1" cx="122.645974" cy="83.7123938" r="69"></circle>
        <filter x="-54.3%" y="-54.3%" width="208.7%" height="208.7%" filterUnits="objectBoundingBox" id="filter-2">
            <feOffset dx="0" dy="0" in="SourceAlpha" result="shadowOffsetOuter1"></feOffset>
            <feGaussianBlur stdDeviation="25" in="shadowOffsetOuter1" result="shadowBlurOuter1"></feGaussianBlur>
            <feColorMatrix values="0 0 0 0 1   0 0 0 0 1   0 0 0 0 1  0 0 0 0.5 0" type="matrix" in="shadowBlurOuter1"></feColorMatrix>
        </filter>
        <ellipse id="path-3" cx="103.014147" cy="39.7129546" rx="18" ry="12"></ellipse>
        <filter x="-20.8%" y="-31.2%" width="141.7%" height="162.5%" filterUnits="objectBoundingBox" id="filter-4">
            <feOffset dx="0" dy="0" in="SourceAlpha" result="shadowOffsetOuter1"></feOffset>
            <feGaussianBlur stdDeviation="2.5" in="shadowOffsetOuter1" result="shadowBlurOuter1"></feGaussianBlur>
            <feColorMatrix values="0 0 0 0 0   0 0 0 0 0   0 0 0 0 0  0 0 0 0.0654774913 0" type="matrix" in="shadowBlurOuter1"></feColorMatrix>
        </filter>
    </defs>
    <g id="Saturn" stroke="none" stroke-width="1" fill="none" fill-rule="evenodd">
        <g transform="translate(143.500000, 116.500000) rotate(-21.000000) translate(-143.500000, -116.500000) translate(20.000000, 40.000000)">
            <g>
                <use fill="black" fill-opacity="1" filter="url(#filter-2)" xlink:href="#path-1"></use>
                <use fill="#A1A1A1" fill-rule="evenodd" xlink:href="#path-1"></use>
            </g>
            <g id="Oval" transform="translate(103.014147, 39.712955) rotate(-36.000000) translate(-103.014147, -39.712955) ">
                <use fill="black" fill-opacity="1" filter="url(#filter-4)" xlink:href="#path-3"></use>
                <use fill="#ABABAB" fill-rule="evenodd" xlink:href="#path-3"></use>
            </g>
            <path d="M122.645974,152.712394 C94.8366489,128.556214 99.5299224,48.7896708 122.645974,14.7123938 C84.5383265,14.7123938 53.6459742,45.604746 53.6459742,83.7123938 C53.6459742,121.820041 84.5383265,152.712394 122.645974,152.712394 Z" fill="#7C7C7C" opacity="0.387468205"></path>
            <path d="M52.7618185,78.4443366 L52.3616401,78.5551115 C47.1239285,80.0246355 42.7847318,81.6607031 39.5294344,83.4219544 C35.1458797,85.7936398 32.7277679,88.3923216 32.7277679,91.117008 C32.7277679,102.272508 73.2619541,111.315828 123.263407,111.315828 C173.264859,111.315828 213.799045,102.272508 213.799045,91.117008 C213.799045,88.483446 211.539971,85.9676012 207.430577,83.6606681 C204.122123,81.8033668 199.614331,80.0814776 194.120507,78.5425898 C193.800266,75.1181142 193.237655,71.7645463 192.450879,68.4987874 C196.91862,69.180047 201.175516,69.9237909 205.194906,70.7256245 C230.398387,75.7535021 246.263407,83.0654023 246.263407,91.2044487 C246.263407,106.368203 191.194431,118.660854 123.263407,118.660854 C55.3323824,118.660854 0.263406612,106.368203 0.263406612,91.2044487 C0.263406612,83.033118 16.2545357,75.6955084 41.6322637,70.6659018 C45.6715652,69.8653535 49.9486686,69.1232765 54.4369421,68.4456158 C53.6500981,71.6964833 53.0862937,75.0353686 52.7618185,78.4443366 Z" id="Ring-2" fill="#7C7C7C"></path>
            <path d="M53.2165933,73.6245244 L52.5187174,73.8178471 C40.7791953,77.10569 33.7834571,81.2437492 33.7834571,85.7393074 C33.7834571,96.4430176 73.4418368,105.120089 122.362927,105.120089 C171.284018,105.120089 210.942398,96.4430176 210.942398,85.7393074 C210.942398,81.2054585 203.82698,77.0352244 191.906134,73.7340203 C191.478156,70.6173646 190.841194,67.5669605 190.010397,64.5965938 C221.909675,69.3645426 242.862927,77.4093207 242.862927,86.5303598 C242.862927,101.166045 188.91324,113.030612 122.362927,113.030612 C55.812615,113.030612 1.86292734,101.166045 1.86292734,86.5303598 C1.86292734,77.3713517 22.9909907,69.2975837 55.1133297,64.5376692 C54.2853835,67.491951 53.6480167,70.5255986 53.2165933,73.6245244 Z" id="Ring-1" fill="#D8D8D8"></path>
        </g>
    </g>
</svg>