<?xml version="1.0" encoding="UTF-8"?>
<svg width="692px" height="180px" viewBox="0 0 692 180" version="1.1" xmlns="http://www.w3.org/2000/svg" xmlns:xlink="http://www.w3.org/1999/xlink">
    <title>Combined Shape</title>
    <defs>
        <path d="M109.828953,0.248 L109.825128,46.6834527 C112.608513,46.5985263 115.434115,46.5150569 118.300657,46.4329654 L118.304953,0.248 L135.256953,0.248 L151.915616,45.5701836 C153.147675,45.5416872 154.385259,45.5133563 155.628293,45.4851861 L155.631953,0.248 L176.332953,0.248 L176.329384,45.0401239 C187.257649,44.8168013 198.541875,44.603034 210.136858,44.3960218 C212.762148,44.3491509 215.40337,44.3040069 218.059998,44.2606166 L218.060953,14.918 C218.060953,10.028 219.364953,6.3605 221.972953,3.9155 C224.580953,1.4705 228.329953,0.248 233.219953,0.248 L233.219953,0.248 L268.101953,0.248 L268.101953,21.438 L238.924953,21.438 L238.924174,43.9602139 C251.207029,43.8066607 263.773791,43.6899322 276.57681,43.6124565 L276.577953,0.248 L319.935953,0.248 C324.825953,0.248 328.574953,1.4705 331.182953,3.9155 C333.790953,6.3605 335.094953,10.028 335.094953,14.918 L335.094953,14.918 L335.096106,43.5355396 C342.484501,43.5605143 349.803009,43.598511 357.042873,43.6490835 L366.227953,0.248 L387.743953,0.248 L396.952033,44.0434996 C404.317924,44.1313831 411.575862,44.2250965 418.715253,44.3249739 L418.713953,14.918 L418.717774,14.463144 C418.796727,9.7999751 420.099453,6.28409375 422.625953,3.9155 C425.233953,1.4705 428.982953,0.248 433.872953,0.248 L433.872953,0.248 L462.071953,0.248 L462.55715,0.252075 C467.210619,0.330858333 470.797887,1.552 473.318953,3.9155 C475.926953,6.3605 477.230953,10.028 477.230953,14.918 L477.230953,14.918 L477.230953,41.813 L456.366953,41.813 L456.366953,21.438 L439.577953,21.438 L439.581018,44.6403937 C455.708818,44.9033929 471.130383,45.2019373 485.710077,45.5403034 L485.706953,0.248 L535.421953,0.248 L535.421953,21.438 L506.570953,21.438 L506.57427,46.0683888 C508.31419,46.1163935 510.039499,46.1650725 511.749919,46.2144344 L530.531953,46.214 L530.534515,46.8053713 C590.579067,48.8649239 628,51.9409477 628,56.5 C628,61.0590444 590.579196,64.4809356 530.534826,66.8254109 L530.531953,67.404 L514.600158,67.4047481 C511.960973,67.4940849 509.285262,67.5815878 506.574074,67.6672608 L506.570953,93.81 L535.421953,93.81 L535.421953,115 L485.706953,115 L485.710658,68.272394 C471.13068,68.6600323 455.708794,69.0010808 439.580643,69.296087 L439.577953,93.81 L456.366953,93.81 L456.366953,73.435 L477.230953,73.435 L477.230953,100.33 L477.227133,100.784856 C477.14818,105.448025 475.845453,108.963906 473.318953,111.3325 C470.710953,113.7775 466.961953,115 462.071953,115 L462.071953,115 L433.872953,115 L433.387757,114.995925 C428.734288,114.917142 425.14702,113.696 422.625953,111.3325 C420.017953,108.8875 418.713953,105.22 418.713953,100.33 L418.713953,100.33 L418.715332,69.646234 C413.337106,69.7286995 407.891605,69.806415 402.383359,69.8793988 L411.867953,115 L389.699953,115 L380.542994,70.140622 C379.093898,70.1561475 377.641082,70.1713648 376.184621,70.1862743 C375.185886,70.1964982 374.185438,70.2064806 373.1833,70.2162203 L364.271953,115 L341.940953,115 L351.383012,70.3877865 C339.124592,70.4618852 326.649649,70.5 314,70.5 C308.445248,70.5 302.924185,70.4926504 297.44035,70.4781315 L297.441953,115 L276.577953,115 L276.577277,70.3875464 C273.740061,70.3703775 270.914448,70.3512811 268.100955,70.3302834 L268.101953,100.33 C268.101953,105.22 266.797953,108.8875 264.189953,111.3325 C261.581953,113.7775 257.832953,115 252.942953,115 L252.942953,115 L218.060953,115 L218.060953,93.81 L247.237953,93.81 L247.236879,70.1375847 C234.356769,69.9954736 221.771063,69.8130944 209.533059,69.5931628 C198.15024,69.3885998 187.068227,69.1689425 176.329906,68.9331321 L176.332953,115 L159.380953,115 L140.258093,68.0412915 C139.838693,68.0296213 139.420002,68.0179198 139.002024,68.0061869 L139.005953,115 L118.304953,115 L118.301152,67.3795802 C115.434862,67.2859846 112.609504,67.1906425 109.826354,67.0935225 L109.828953,115 L88.9649533,115 L88.9611659,66.2979142 C33.9082064,64.000755 0,60.8397996 0,56.5 C0,52.1601681 33.9087115,49.3830265 88.9623958,47.3779384 L88.9649533,0.248 L109.828953,0.248 Z M314.393953,21.438 L297.441953,21.438 L297.440725,43.5218675 C302.924436,43.5073493 308.445375,43.5 314,43.5 C314.131196,43.5 314.262372,43.5000041 314.39353,43.5000123 L314.393953,21.438 Z" id="path-1"></path>
        <filter x="-7.6%" y="-41.8%" width="115.3%" height="183.7%" filterUnits="objectBoundingBox" id="filter-2">
            <feMorphology radius="6" operator="dilate" in="SourceAlpha" result="shadowSpreadOuter1"></feMorphology>
            <feOffset dx="0" dy="0" in="shadowSpreadOuter1" result="shadowOffsetOuter1"></feOffset>
            <feGaussianBlur stdDeviation="12" in="shadowOffsetOuter1" result="shadowBlurOuter1"></feGaussianBlur>
            <feComposite in="shadowBlurOuter1" in2="SourceAlpha" operator="out" result="shadowBlurOuter1"></feComposite>
            <feColorMatrix values="0 0 0 0 0.858823529   0 0 0 0 1   0 0 0 0 0.988235294  0 0 0 1 0" type="matrix" in="shadowBlurOuter1"></feColorMatrix>
        </filter>
    </defs>
    <g id="Page-1" stroke="none" stroke-width="1" fill="none" fill-rule="evenodd">
        <g id="Desktop-HD" transform="translate(-670.000000, -662.000000)">
            <g id="Group-2" transform="translate(70.000000, 147.000000)">
                <g id="Combined-Shape" transform="translate(631.850929, 547.187643)">
                    <use fill="black" fill-opacity="1" filter="url(#filter-2)" xlink:href="#path-1"></use>
                    <use stroke="#DBFFFC" stroke-width="6" fill="#89B2C4" fill-rule="evenodd" xlink:href="#path-1"></use>
                </g>
            </g>
        </g>
    </g>
</svg>